grf
version=1
nRows=7
nColumns=37
inDegrees=no
endheader
time	ground_force_1_vx	ground_force_1_vy	ground_force_1_vz	ground_force_1_px	ground_force_1_py	ground_force_1_pz	ground_moment_1_mx	ground_moment_1_my	ground_moment_1_mz	ground_force_2_vx	ground_force_2_vy	ground_force_2_vz	ground_force_2_px	ground_force_2_py	ground_force_2_pz	ground_moment_2_mx	ground_moment_2_my	ground_moment_2_mz	ground_force_3_vx	ground_force_3_vy	ground_force_3_vz	ground_force_3_px	ground_force_3_py	ground_force_3_pz	ground_moment_3_mx	ground_moment_3_my	ground_moment_3_mz	ground_force_4_vx	ground_force_4_vy	ground_force_4_vz	ground_force_4_px	ground_force_4_py	ground_force_4_pz	ground_moment_4_mx	ground_moment_4_my	ground_moment_4_mz
      5.29000000	      0.00000000	     -0.00000000	      0.00000000	      0.00000000	      0.00000000	      0.00000000	      0.00000000	      0.00000000	      0.00000000	      6.25942135	      5.81603289	   -749.80102539	   -290.68616641	  -1159.58492601	      0.00000000	      0.00000000	      0.00000000	   -736.55846091	      0.00000000	     -0.00000000	      0.00000000	      0.00000000	      0.00000000	      0.00000000	      0.00000000	      0.00000000	      0.00000000	    -34.87858058	     16.19453735	     75.80566406	    605.56800310	   -561.94974608	      0.00000000	      0.00000000	     -0.00000000	   -164.80079462
      5.30000000	      0.00000000	     -0.00000000	      0.00000000	      0.00000000	      0.00000000	      0.00000000	      0.00000000	      0.00000000	      0.00000000	      5.12206793	      6.76889086	   -743.13043213	   -289.79953971	  -1159.46487780	      0.00000000	      0.00000000	     -0.00000000	   -799.15993978	      0.00000000	     -0.00000000	      0.00000000	      0.00000000	      0.00000000	      0.00000000	      0.00000000	      0.00000000	      0.00000000	    -34.83621457	     16.01986808	     75.95030975	    603.09810965	   -565.44032632	      0.00000000	      0.00000000	      0.00000000	     76.75188138
      5.31000000	      0.00000000	     -0.00000000	      0.00000000	      0.00000000	      0.00000000	      0.00000000	      0.00000000	      0.00000000	      0.00000000	      3.38999939	      7.00444841	   -737.85400391	   -289.42430970	  -1160.92699876	      0.00000000	      0.00000000	     -0.00000000	   -886.97549061	      0.00000000	     -0.00000000	      0.00000000	      0.00000000	      0.00000000	      0.00000000	      0.00000000	      0.00000000	      0.00000000	    -34.62042856	     16.33218877	     75.68276978	    605.08859913	   -563.21402010	      0.00000000	      0.00000000	     -0.00000000	    -89.09179648
      5.32000000	      0.00000000	     -0.00000000	      0.00000000	      0.00000000	      0.00000000	      0.00000000	      0.00000000	      0.00000000	      0.00000000	      2.86003280	      6.86304092	   -734.21911621	   -288.57877246	  -1161.05214837	      0.00000000	      0.00000000	     -0.00000000	   -954.56769637	      0.00000000	     -0.00000000	      0.00000000	      0.00000000	      0.00000000	      0.00000000	      0.00000000	      0.00000000	      0.00000000	    -34.76288466	     15.83465880	     76.17824554	    602.93630326	   -563.88756530	      0.00000000	      0.00000000	     -0.00000000	     -2.70268339
      5.33000000	      0.00000000	     -0.00000000	      0.00000000	      0.00000000	      0.00000000	      0.00000000	      0.00000000	      0.00000000	      0.00000000	      2.76552582	      5.66249228	   -732.16351318	   -288.18257140	  -1161.49340755	      0.00000000	      0.00000000	     -0.00000000	   -919.89774067	      0.00000000	     -0.00000000	      0.00000000	      0.00000000	      0.00000000	      0.00000000	      0.00000000	      0.00000000	      0.00000000	    -35.11527110	     16.24803850	     76.71626282	    600.55926644	   -563.69361753	      0.00000000	      0.00000000	     -0.00000000	     -6.64542540
      5.34000000	      0.00000000	     -0.00000000	      0.00000000	      0.00000000	      0.00000000	      0.00000000	      0.00000000	      0.00000000	      0.00000000	      2.88545394	      4.09999847	   -731.31402588	   -287.62421393	  -1161.14514872	      0.00000000	      0.00000000	     -0.00000000	  -1087.61590242	      0.00000000	     -0.00000000	      0.00000000	      0.00000000	      0.00000000	      0.00000000	      0.00000000	      0.00000000	      0.00000000	    -34.79357006	     16.11617774	     76.20190430	    602.86973972	   -568.38345821	      0.00000000	      0.00000000	      0.00000000	     94.93706507
      5.35000000	      0.00000000	     -0.00000000	      0.00000000	      0.00000000	      0.00000000	      0.00000000	      0.00000000	      0.00000000	      0.00000000	      3.58553767	      2.37620711	   -731.43566895	   -287.03185973	  -1161.53708018	      0.00000000	      0.00000000	     -0.00000000	  -1048.34878017	      0.00000000	     -0.00000000	      0.00000000	      0.00000000	      0.00000000	      0.00000000	      0.00000000	      0.00000000	      0.00000000	    -35.03779843	     16.02055474	     75.68827820	    605.10729874	   -563.75263711	      0.00000000	      0.00000000	     -0.00000000	    -25.00381407
